<svg width="30" height="34" viewBox="0 0 30 34" fill="none" xmlns="http://www.w3.org/2000/svg">
<g clip-path="url(#clip0_39_25)">
<path d="M30 5.66717L26.25 13.5997L22.5 14.7331H18.75V15.1104H19.6875L22.5 16.0552L26.25 17.9448L29.0625 20.7776L30 28.3328L26.25 34L28.125 28.3328L26.25 20.7776L22.5 18.8896L19.6875 17L18.6634 16.6559C18.5944 17.1083 18.4844 17.5521 18.3332 17.9795L22.5 20.7776L24.375 22.6672L23.4375 30.2224L19.6875 34L21.5625 30.2224L22.5 23.6104L18.75 20.7776L17.7472 19.2638C17.6282 19.4597 17.4984 19.6482 17.3544 19.8223L17.2199 19.9853C17.0378 20.2054 16.8291 20.3954 16.6033 20.5542C17.0797 20.6955 17.5344 20.9319 17.9403 21.2591L18.9125 22.0423C19.4204 22.452 19.8277 23.0039 20.0923 23.6436C20.4376 24.4789 20.5244 25.423 20.3387 26.321L19.9379 28.2589C19.7742 29.0498 19.4293 29.779 18.9391 30.3718L16.5794 33.2258C16.1705 33.7199 15.5977 33.9997 15 34C14.4025 33.9998 13.8309 33.7195 13.422 33.2258L11.0622 30.3718C10.5719 29.779 10.2272 29.0499 10.0635 28.2589L9.66264 26.321C9.47688 25.4228 9.56357 24.479 9.909 23.6436C10.1738 23.0036 10.5806 22.452 11.0889 22.0423L12.061 21.2591C12.4668 20.9321 12.9205 20.6955 13.3967 20.5542C13.1713 20.3956 12.9633 20.205 12.7814 19.9853L12.6469 19.8223C12.5027 19.6479 12.3709 19.46 12.2514 19.2638L11.25 20.7776L7.5 23.6104L8.4375 30.2224L10.3125 34L6.5625 30.2224L5.625 22.6672L7.5 20.7776L11.6655 17.9795C11.5142 17.5522 11.4045 17.1081 11.3352 16.6559L10.3125 17L7.5 18.8896L3.75 20.7776L1.875 28.3328L3.75 34L0 28.3328L0.9375 20.7776L3.75 17.9448L7.5 16.0552L10.3125 15.1104H11.25V14.7331H7.5L3.75 13.5997L0 5.66717L2.8125 0L1.875 5.66717L4.6875 11.3328L7.5 12.4663L11.4058 13.4095C11.461 13.1777 11.5311 12.9503 11.6149 12.7289L7.5 11.9003L4.6875 3.77761L7.5 0L6.5625 3.77761L9.375 10.7669L12.0836 11.5849L12.1875 11.3343L10.3125 7.93404L13.125 4.53374L12.1875 7.93404L13.0158 9.93679C13.0934 9.85685 13.1751 9.78185 13.2595 9.71191L14.0625 6.8006L14.6924 9.08709C14.7936 9.07508 14.8967 9.06749 15 9.06747C15.1026 9.06752 15.2057 9.07523 15.3063 9.08709L15.9375 6.8006L16.7392 9.7104C16.8238 9.78046 16.905 9.8567 16.9829 9.93679L17.8125 7.93404L16.875 4.53374L19.6875 7.93404L17.8125 11.3343L17.9164 11.5849L20.625 10.7669L23.4375 3.77761L22.5 0L25.3125 3.77761L22.5 11.9003L18.3851 12.7289C18.4689 12.9504 18.5392 13.1777 18.5942 13.4095L22.5 12.4663L25.3125 11.3328L28.125 5.66717L27.1875 0L30 5.66717ZM11.25 24.9325L12.1875 29.4663L15 32.8666L17.8125 29.4663L18.75 24.9325L15 21.5322L11.25 24.9325ZM16.875 25.5L15.9375 28.3328L15 29.2776L14.0625 28.3328L13.125 25.5L15 23.6104L16.875 25.5ZM12.1875 13.5997V17L15 19.2654L17.8125 17V13.5997L15.9375 10.1994H14.0625L12.1875 13.5997ZM15.9375 13.2224L16.875 15.1104L15.9375 17H14.0625L13.125 15.1104L14.0625 13.2224L15 12.2776L15.9375 13.2224Z" fill="#1E1E1E"/>
</g>
<defs>
<clipPath id="clip0_39_25">
<rect width="30" height="34" fill="white"/>
</clipPath>
</defs>
</svg>
